<?xml version="1.0" encoding="utf-8"?>
<!-- Generator: Adobe Illustrator 24.1.3, SVG Export Plug-In . SVG Version: 6.00 Build 0)  -->
<svg version="1.1" id="INGLES" xmlns="http://www.w3.org/2000/svg" xmlns:xlink="http://www.w3.org/1999/xlink" x="0px" y="0px"
	 viewBox="0 0 129 75.2" style="enable-background:new 0 0 129 75.2;" xml:space="preserve">
<style type="text/css">
	.st0{fill:#001689;}
	.st1{fill:#FFFFFF;}
	.st2{fill:#EA0029;}
	.st3{fill:#2D2E73;}
</style>
<g>
	<g>
		<path class="st0" d="M2.2,66.5h1.1l2.5,3.3v-3.3h1.1v5.4h-1l-2.5-3.4v3.4H2.2V66.5z"/>
		<path class="st0" d="M10.6,72c-0.4,0-0.8-0.1-1.1-0.2c-0.3-0.1-0.6-0.3-0.9-0.6c-0.2-0.2-0.4-0.5-0.6-0.9
			c-0.1-0.3-0.2-0.7-0.2-1.1v0c0-0.4,0.1-0.7,0.2-1.1c0.1-0.3,0.3-0.6,0.6-0.9c0.2-0.3,0.5-0.5,0.9-0.6c0.3-0.1,0.7-0.2,1.1-0.2
			c0.4,0,0.8,0.1,1.1,0.2c0.3,0.1,0.6,0.3,0.9,0.6c0.2,0.2,0.4,0.5,0.6,0.9c0.1,0.3,0.2,0.7,0.2,1.1v0c0,0.4-0.1,0.7-0.2,1.1
			c-0.1,0.3-0.3,0.6-0.6,0.9c-0.2,0.3-0.5,0.5-0.9,0.6C11.4,71.9,11,72,10.6,72z M10.7,70.9c0.2,0,0.4,0,0.6-0.1
			c0.2-0.1,0.4-0.2,0.5-0.4c0.1-0.2,0.2-0.3,0.3-0.5c0.1-0.2,0.1-0.4,0.1-0.6v0c0-0.2,0-0.4-0.1-0.7c-0.1-0.2-0.2-0.4-0.3-0.5
			c-0.1-0.2-0.3-0.3-0.5-0.4c-0.2-0.1-0.4-0.1-0.6-0.1c-0.2,0-0.4,0-0.6,0.1c-0.2,0.1-0.4,0.2-0.5,0.4c-0.1,0.2-0.2,0.3-0.3,0.5
			c-0.1,0.2-0.1,0.4-0.1,0.6v0c0,0.2,0,0.4,0.1,0.7c0.1,0.2,0.2,0.4,0.3,0.5c0.1,0.2,0.3,0.3,0.5,0.4C10.2,70.9,10.4,70.9,10.7,70.9
			z"/>
		<path class="st0" d="M16.7,72c-0.7,0-1.3-0.2-1.7-0.6c-0.4-0.4-0.6-1-0.6-1.8v-3.1h1.2v3c0,0.4,0.1,0.8,0.3,1
			c0.2,0.2,0.5,0.3,0.8,0.3c0.4,0,0.6-0.1,0.8-0.3c0.2-0.2,0.3-0.5,0.3-1v-3.1H19v3c0,0.4-0.1,0.8-0.2,1.1c-0.1,0.3-0.3,0.6-0.5,0.8
			c-0.2,0.2-0.4,0.4-0.7,0.5C17.3,71.9,17,72,16.7,72z"/>
		<path class="st0" d="M20.1,66.5h2.4c0.7,0,1.2,0.2,1.5,0.5c0.3,0.3,0.5,0.7,0.5,1.2v0c0,0.4-0.1,0.8-0.3,1.1
			c-0.2,0.3-0.5,0.5-0.8,0.6l1.3,1.9h-1.4l-1.1-1.7h0h-0.9v1.7h-1.2V66.5z M22.5,69.1c0.3,0,0.5-0.1,0.7-0.2
			c0.2-0.1,0.2-0.3,0.2-0.6v0c0-0.3-0.1-0.4-0.2-0.6c-0.2-0.1-0.4-0.2-0.7-0.2h-1.1v1.5H22.5z"/>
		<path class="st0" d="M25.6,66.5h1.2v5.4h-1.2V66.5z"/>
		<path class="st0" d="M30,72c-0.4,0-0.8-0.1-1.2-0.2c-0.4-0.1-0.7-0.4-1.1-0.6l0.7-0.8c0.2,0.2,0.5,0.4,0.7,0.5
			c0.3,0.1,0.5,0.2,0.8,0.2c0.2,0,0.4,0,0.6-0.1c0.1-0.1,0.2-0.2,0.2-0.4v0c0-0.1,0-0.1,0-0.2c0-0.1-0.1-0.1-0.2-0.2
			c-0.1-0.1-0.2-0.1-0.3-0.2c-0.1-0.1-0.3-0.1-0.5-0.2c-0.3-0.1-0.5-0.1-0.7-0.2c-0.2-0.1-0.4-0.2-0.5-0.3c-0.2-0.1-0.3-0.3-0.3-0.4
			c-0.1-0.2-0.1-0.4-0.1-0.7v0c0-0.2,0-0.5,0.1-0.7c0.1-0.2,0.2-0.4,0.4-0.5c0.2-0.1,0.4-0.3,0.6-0.3c0.2-0.1,0.5-0.1,0.7-0.1
			c0.4,0,0.7,0.1,1.1,0.2c0.3,0.1,0.6,0.3,0.9,0.5L31.1,68c-0.2-0.2-0.5-0.3-0.7-0.4c-0.2-0.1-0.5-0.1-0.7-0.1c-0.2,0-0.4,0-0.5,0.1
			c-0.1,0.1-0.2,0.2-0.2,0.3v0c0,0.1,0,0.2,0,0.2c0,0.1,0.1,0.1,0.2,0.2c0.1,0.1,0.2,0.1,0.3,0.1c0.1,0,0.3,0.1,0.6,0.2
			c0.3,0.1,0.5,0.2,0.7,0.2c0.2,0.1,0.4,0.2,0.5,0.3c0.1,0.1,0.3,0.3,0.3,0.4c0.1,0.2,0.1,0.4,0.1,0.6v0c0,0.3,0,0.5-0.1,0.7
			c-0.1,0.2-0.2,0.4-0.4,0.5c-0.2,0.1-0.4,0.2-0.6,0.3C30.5,71.9,30.2,72,30,72z"/>
		<path class="st0" d="M32.9,66.5H34v2.1h2.1v-2.1h1.2v5.4h-1.2v-2.2H34v2.2h-1.2V66.5z"/>
		<path class="st0" d="M38.6,66.5h1.2v5.4h-1.2V66.5z"/>
		<path class="st0" d="M41.1,66.5h1.1l2.5,3.3v-3.3h1.1v5.4h-1l-2.5-3.4v3.4h-1.1V66.5z"/>
		<path class="st0" d="M49.6,72c-0.4,0-0.8-0.1-1.1-0.2c-0.3-0.1-0.6-0.3-0.9-0.6c-0.2-0.2-0.4-0.5-0.6-0.9
			c-0.1-0.3-0.2-0.7-0.2-1.1v0c0-0.4,0.1-0.7,0.2-1.1c0.1-0.3,0.3-0.6,0.6-0.9c0.2-0.3,0.5-0.5,0.9-0.6c0.3-0.1,0.7-0.2,1.1-0.2
			c0.2,0,0.4,0,0.6,0c0.2,0,0.4,0.1,0.5,0.1c0.2,0.1,0.3,0.1,0.5,0.2c0.1,0.1,0.3,0.2,0.4,0.3l-0.7,0.9c-0.1-0.1-0.2-0.2-0.3-0.2
			c-0.1-0.1-0.2-0.1-0.3-0.2c-0.1,0-0.2-0.1-0.3-0.1c-0.1,0-0.3,0-0.4,0c-0.2,0-0.4,0-0.6,0.1c-0.2,0.1-0.3,0.2-0.5,0.4
			c-0.1,0.2-0.2,0.3-0.3,0.5C48,68.8,48,69,48,69.2v0c0,0.2,0,0.5,0.1,0.7c0.1,0.2,0.2,0.4,0.3,0.5c0.1,0.2,0.3,0.3,0.5,0.4
			c0.2,0.1,0.4,0.1,0.6,0.1c0.4,0,0.8-0.1,1.1-0.3v-0.8h-1.2v-1h2.3v2.3c-0.3,0.2-0.6,0.4-1,0.6C50.5,71.9,50,72,49.6,72z"/>
		<path class="st0" d="M57,66.5H58l2.3,5.4h-1.2l-0.5-1.2h-2.2l-0.5,1.2h-1.2L57,66.5z M58.2,69.6l-0.7-1.7l-0.7,1.7H58.2z"/>
		<path class="st0" d="M63.3,66.5h2.4c0.6,0,1.1,0.2,1.4,0.5c0.2,0.2,0.4,0.5,0.4,0.9v0c0,0.2,0,0.3-0.1,0.4c0,0.1-0.1,0.2-0.1,0.3
			c-0.1,0.1-0.1,0.2-0.2,0.2C67,69,66.9,69,66.8,69.1c0.3,0.1,0.5,0.3,0.7,0.5c0.2,0.2,0.3,0.5,0.3,0.8v0c0,0.2,0,0.5-0.1,0.6
			c-0.1,0.2-0.2,0.3-0.4,0.5c-0.2,0.1-0.4,0.2-0.6,0.3c-0.2,0.1-0.5,0.1-0.8,0.1h-2.5V66.5z M65.5,68.7c0.3,0,0.5,0,0.6-0.1
			c0.2-0.1,0.2-0.2,0.2-0.4v0c0-0.2-0.1-0.3-0.2-0.4c-0.1-0.1-0.3-0.1-0.6-0.1h-1.1v1.1H65.5z M65.8,70.9c0.3,0,0.5,0,0.6-0.1
			c0.1-0.1,0.2-0.2,0.2-0.4v0c0-0.2-0.1-0.3-0.2-0.4c-0.1-0.1-0.4-0.2-0.7-0.2h-1.3v1.2H65.8z"/>
		<path class="st0" d="M68.8,66.5h4v1h-2.8v1.1h2.5v1.1h-2.5v1.1h2.9v1h-4V66.5z"/>
		<path class="st0" d="M75,67.6h-1.6v-1.1h4.4v1.1h-1.6v4.3H75V67.6z"/>
		<path class="st0" d="M79.9,67.6h-1.6v-1.1h4.4v1.1H81v4.3h-1.2V67.6z"/>
		<path class="st0" d="M83.5,66.5h4v1h-2.8v1.1h2.5v1.1h-2.5v1.1h2.9v1h-4V66.5z"/>
		<path class="st0" d="M88.5,66.5h2.4c0.7,0,1.2,0.2,1.5,0.5c0.3,0.3,0.5,0.7,0.5,1.2v0c0,0.4-0.1,0.8-0.3,1.1
			c-0.2,0.3-0.5,0.5-0.8,0.6l1.3,1.9h-1.4l-1.1-1.7h0h-0.9v1.7h-1.2V66.5z M90.8,69.1c0.3,0,0.5-0.1,0.7-0.2
			c0.2-0.1,0.2-0.3,0.2-0.6v0c0-0.3-0.1-0.4-0.2-0.6c-0.2-0.1-0.4-0.2-0.7-0.2h-1.1v1.5H90.8z"/>
		<path class="st0" d="M95.8,66.5H97l1.1,3.6l1.2-3.6h1l1.2,3.6l1.1-3.6h1.2l-1.8,5.4h-1l-1.2-3.5l-1.2,3.5h-1L95.8,66.5z"/>
		<path class="st0" d="M107.2,72c-0.4,0-0.8-0.1-1.1-0.2c-0.3-0.1-0.6-0.3-0.9-0.6c-0.2-0.2-0.4-0.5-0.6-0.9
			c-0.1-0.3-0.2-0.7-0.2-1.1v0c0-0.4,0.1-0.7,0.2-1.1c0.1-0.3,0.3-0.6,0.6-0.9c0.2-0.3,0.5-0.5,0.9-0.6c0.3-0.1,0.7-0.2,1.1-0.2
			c0.4,0,0.8,0.1,1.1,0.2c0.3,0.1,0.6,0.3,0.9,0.6c0.2,0.2,0.4,0.5,0.6,0.9c0.1,0.3,0.2,0.7,0.2,1.1v0c0,0.4-0.1,0.7-0.2,1.1
			c-0.1,0.3-0.3,0.6-0.6,0.9c-0.2,0.3-0.5,0.5-0.9,0.6C107.9,71.9,107.6,72,107.2,72z M107.2,70.9c0.2,0,0.4,0,0.6-0.1
			c0.2-0.1,0.4-0.2,0.5-0.4c0.1-0.2,0.2-0.3,0.3-0.5c0.1-0.2,0.1-0.4,0.1-0.6v0c0-0.2,0-0.4-0.1-0.7s-0.2-0.4-0.3-0.5
			c-0.1-0.2-0.3-0.3-0.5-0.4c-0.2-0.1-0.4-0.1-0.6-0.1c-0.2,0-0.4,0-0.6,0.1c-0.2,0.1-0.4,0.2-0.5,0.4c-0.1,0.2-0.2,0.3-0.3,0.5
			c-0.1,0.2-0.1,0.4-0.1,0.6v0c0,0.2,0,0.4,0.1,0.7c0.1,0.2,0.2,0.4,0.3,0.5c0.1,0.2,0.3,0.3,0.5,0.4
			C106.7,70.9,106.9,70.9,107.2,70.9z"/>
		<path class="st0" d="M111,66.5h2.4c0.7,0,1.2,0.2,1.5,0.5c0.3,0.3,0.5,0.7,0.5,1.2v0c0,0.4-0.1,0.8-0.3,1.1
			c-0.2,0.3-0.5,0.5-0.8,0.6l1.3,1.9h-1.4l-1.1-1.7h0h-0.9v1.7H111V66.5z M113.3,69.1c0.3,0,0.5-0.1,0.7-0.2
			c0.2-0.1,0.2-0.3,0.2-0.6v0c0-0.3-0.1-0.4-0.2-0.6c-0.2-0.1-0.4-0.2-0.7-0.2h-1.1v1.5H113.3z"/>
		<path class="st0" d="M116.4,66.5h1.2v4.3h2.6v1.1h-3.8V66.5z"/>
		<path class="st0" d="M121.1,66.5h2c0.4,0,0.8,0.1,1.1,0.2c0.3,0.1,0.6,0.3,0.9,0.6c0.2,0.2,0.4,0.5,0.6,0.8
			c0.1,0.3,0.2,0.7,0.2,1.1v0c0,0.4-0.1,0.7-0.2,1.1c-0.1,0.3-0.3,0.6-0.6,0.9c-0.2,0.2-0.5,0.4-0.9,0.6c-0.3,0.1-0.7,0.2-1.1,0.2
			h-2V66.5z M123.1,70.8c0.2,0,0.5,0,0.6-0.1c0.2-0.1,0.4-0.2,0.5-0.3c0.1-0.1,0.2-0.3,0.3-0.5c0.1-0.2,0.1-0.4,0.1-0.7v0
			c0-0.2,0-0.5-0.1-0.7c-0.1-0.2-0.2-0.4-0.3-0.5c-0.1-0.1-0.3-0.3-0.5-0.3c-0.2-0.1-0.4-0.1-0.6-0.1h-0.9v3.2H123.1z"/>
	</g>
	<g>
		<g>
			<path class="st0" d="M125.4,12.3c-0.9-4.7-2.1-8.2-2.3-8.4c-0.1-0.1-0.1-0.1-0.2-0.2L114.2,1c-0.2-0.1-0.4,0-0.5,0.1
				c-4.8,4.3-12.5,6.4-24.3,6.4c-9.5,0-20.4-1.3-31-2.6C48,3.6,37.2,2.3,28.1,2.3c-0.4,0-0.9,0-1.3,0C19.7,2.4,13.9,4.3,9.7,8
				c-4.8,4.2-7.7,10.8-8.9,19.6c-1.9,14.9,2.7,29.9,3,30.2C3.9,58,4,58,4.1,58.1l7.4,1.4c0,0,0.1,0,0.1,0c0.1,0,0.3,0,0.4-0.1
				c4.9-4.4,13.2-6.5,26-6.5c9.2,0,19.7,1.1,29.9,2.1c9.9,1,20.2,2.1,29,2.1c0,0,0,0,0,0c1.5,0,2.9,0,4.2-0.1
				c7.1-0.3,12.6-2.1,16.6-5.6c4.9-4.1,7.7-10.4,8.6-19.2C127.2,24.1,126.3,17,125.4,12.3z"/>
			<path class="st1" d="M121.9,6.2c0,0,11.3,35.3-9,46.1c-20.5,10.9-82-12.8-107.5,4c0.1-0.8-11.3-37,8.8-49.2
				C33.6-4.7,90.6,21.8,121.9,6.2z"/>
			<g>
				<path class="st2" d="M31,30.5c1.7-1.1,2.5-2.7,2.5-4.8c0-4.2-2.7-6.3-7.9-6.3H14.1v24.6h11.8c4,0,8.7-1.9,8.7-7.3
					C34.6,33.7,33.4,31.6,31,30.5z M25.2,38.9h-5V24.4h4.3c2.6,0,3,1.1,3,2.2c0,1.5-0.9,2.3-2.6,2.3h-1.4l-2.1,4.6h3.9
					c2.2,0,3.2,0.9,3.2,2.8C28.5,37.4,28.1,38.9,25.2,38.9z"/>
				<rect x="36.1" y="19.4" class="st2" width="6.1" height="24.6"/>
				<polygon class="st2" points="57,33.3 54,19.3 44.2,19.3 44.2,43.9 50.4,43.9 50.4,28.9 54,43.9 60.1,43.9 63.7,28.7 63.7,43.9 
					69.9,43.9 69.9,19.3 60.1,19.3 				"/>
				<path class="st2" d="M89,30.7c1.7-1.1,2.5-2.7,2.5-4.8c0-4.2-2.7-6.3-7.9-6.3H72.1v24.6h11.8c4,0,8.7-1.9,8.7-7.3
					C92.6,33.8,91.3,31.7,89,30.7z M83.2,39h-5l0-14.4h4.3c2.6,0,3,1.1,3,2.2c0,1.5-0.9,2.3-2.6,2.3h-1.4l-2.1,4.6h3.9
					c2.2,0,3.2,0.9,3.2,2.8C86.5,37.5,86.1,39,83.2,39z"/>
				<g>
					<path class="st2" d="M105.7,19.1c-6.8,0-12.3,5.5-12.3,12.3c0,6.8,5.5,12.3,12.3,12.3c6.8,0,12.3-5.5,12.3-12.3
						C118.1,24.7,112.5,19.1,105.7,19.1z M105.7,37.9c-3.5,0-6.5-3-6.5-6.5c0-3.5,3-6.5,6.5-6.5c3.5,0,6.4,2.9,6.4,6.5
						C112.1,35,109.3,37.9,105.7,37.9z"/>
				</g>
			</g>
			<g>
				<path class="st0" d="M22,16.3c-0.5,0.3-1.1,0.5-1.7,0.6c-0.6,0.1-1.2,0.2-1.8,0.2c-0.6,0-1.2-0.1-1.8-0.3
					c-0.5-0.2-1-0.5-1.4-0.8c-0.4-0.4-0.7-0.8-0.9-1.3c-0.2-0.5-0.3-1.1-0.3-1.7c0-0.6,0.1-1.2,0.3-1.7c0.2-0.5,0.5-0.9,0.9-1.3
					c0.4-0.4,0.9-0.6,1.4-0.8C17.4,9,18,8.9,18.6,8.9c0.7,0,1.3,0.1,1.8,0.2c0.6,0.2,1,0.4,1.5,0.8l-1.3,1.3
					c-0.2-0.2-0.5-0.4-0.8-0.6c-0.3-0.1-0.7-0.2-1.2-0.2c-0.4,0-0.7,0.1-1,0.2c-0.3,0.1-0.6,0.3-0.8,0.5c-0.2,0.2-0.4,0.5-0.5,0.8
					c-0.1,0.3-0.2,0.6-0.2,1c0,0.4,0.1,0.7,0.2,1c0.1,0.3,0.3,0.6,0.5,0.8c0.2,0.2,0.5,0.4,0.8,0.5c0.3,0.1,0.7,0.2,1,0.2
					c0.4,0,0.7,0,1-0.1c0.3-0.1,0.5-0.2,0.7-0.3v-1.3h-1.5v-1.6H22V16.3z"/>
				<path class="st0" d="M23.2,9.1h3.2c0.4,0,0.8,0,1.2,0.1s0.7,0.2,1,0.4c0.3,0.2,0.5,0.4,0.7,0.7c0.2,0.3,0.2,0.7,0.2,1.1
					c0,0.6-0.2,1-0.5,1.4c-0.3,0.4-0.7,0.6-1.3,0.7l2.1,3.3h-2.2l-1.7-3.1H25v3.1h-1.8V9.1z M25,12.3H26c0.2,0,0.3,0,0.5,0
					c0.2,0,0.3,0,0.5-0.1c0.1-0.1,0.3-0.1,0.4-0.3c0.1-0.1,0.1-0.3,0.1-0.5c0-0.2,0-0.4-0.1-0.5c-0.1-0.1-0.2-0.2-0.3-0.3
					c-0.1-0.1-0.3-0.1-0.5-0.1c-0.2,0-0.3,0-0.5,0H25V12.3z"/>
				<path class="st0" d="M37.1,13.9c0,0.5-0.1,0.9-0.2,1.3c-0.1,0.4-0.4,0.7-0.7,1c-0.3,0.3-0.6,0.5-1.1,0.7
					c-0.4,0.2-0.9,0.2-1.5,0.2c-0.6,0-1.1-0.1-1.5-0.2c-0.4-0.2-0.8-0.4-1.1-0.7c-0.3-0.3-0.5-0.6-0.7-1c-0.1-0.4-0.2-0.8-0.2-1.3
					V9.1H32v4.7c0,0.2,0,0.5,0.1,0.7c0.1,0.2,0.2,0.4,0.3,0.5c0.1,0.2,0.3,0.3,0.5,0.4c0.2,0.1,0.4,0.1,0.7,0.1c0.2,0,0.5,0,0.7-0.1
					c0.2-0.1,0.4-0.2,0.5-0.4c0.1-0.2,0.3-0.3,0.3-0.5c0.1-0.2,0.1-0.4,0.1-0.7V9.1h1.8V13.9z"/>
				<path class="st0" d="M38.3,9.1h3c0.4,0,0.8,0,1.2,0.1c0.4,0.1,0.7,0.2,1,0.4c0.3,0.2,0.5,0.4,0.7,0.7c0.2,0.3,0.2,0.7,0.2,1.2
					c0,0.5-0.1,0.8-0.2,1.1c-0.2,0.3-0.4,0.6-0.6,0.7c-0.3,0.2-0.6,0.3-1,0.4c-0.4,0.1-0.8,0.1-1.2,0.1h-1.3v3h-1.8V9.1z M40.1,12.4
					h1.2c0.2,0,0.3,0,0.5,0c0.2,0,0.3-0.1,0.4-0.1c0.1-0.1,0.2-0.2,0.3-0.3c0.1-0.1,0.1-0.3,0.1-0.5c0-0.2,0-0.4-0.1-0.5
					c-0.1-0.1-0.2-0.2-0.4-0.3c-0.2-0.1-0.3-0.1-0.5-0.1c-0.2,0-0.4,0-0.5,0h-0.9V12.4z"/>
				<path class="st0" d="M45.1,13c0-0.6,0.1-1.2,0.3-1.7c0.2-0.5,0.5-0.9,0.9-1.3c0.4-0.4,0.9-0.6,1.4-0.8c0.5-0.2,1.1-0.3,1.8-0.3
					c0.6,0,1.2,0.1,1.8,0.3c0.5,0.2,1,0.5,1.4,0.8c0.4,0.4,0.7,0.8,0.9,1.3c0.2,0.5,0.3,1.1,0.3,1.7c0,0.6-0.1,1.2-0.3,1.7
					c-0.2,0.5-0.5,0.9-0.9,1.3c-0.4,0.4-0.9,0.6-1.4,0.8c-0.5,0.2-1.1,0.3-1.8,0.3c-0.6,0-1.2-0.1-1.8-0.3c-0.5-0.2-1-0.5-1.4-0.8
					c-0.4-0.4-0.7-0.8-0.9-1.3C45.2,14.2,45.1,13.6,45.1,13z M47,13c0,0.4,0.1,0.7,0.2,1c0.1,0.3,0.3,0.6,0.5,0.8
					c0.2,0.2,0.5,0.4,0.8,0.5c0.3,0.1,0.7,0.2,1,0.2c0.4,0,0.7-0.1,1-0.2c0.3-0.1,0.6-0.3,0.8-0.5c0.2-0.2,0.4-0.5,0.5-0.8
					c0.1-0.3,0.2-0.6,0.2-1c0-0.4-0.1-0.7-0.2-1c-0.1-0.3-0.3-0.6-0.5-0.8c-0.2-0.2-0.5-0.4-0.8-0.5c-0.3-0.1-0.7-0.2-1-0.2
					c-0.4,0-0.7,0.1-1,0.2c-0.3,0.1-0.6,0.3-0.8,0.5c-0.2,0.2-0.4,0.5-0.5,0.8C47.1,12.3,47,12.6,47,13z"/>
			</g>
		</g>
		<g>
			<path class="st3" d="M121.8,53.3c0-0.5,0.1-0.9,0.3-1.3c0.2-0.4,0.4-0.7,0.7-1c0.3-0.3,0.6-0.5,1-0.7c0.4-0.2,0.8-0.2,1.2-0.2
				c0.4,0,0.8,0.1,1.2,0.2c0.4,0.2,0.7,0.4,1,0.7c0.3,0.3,0.5,0.6,0.7,1c0.2,0.4,0.3,0.8,0.3,1.3c0,0.5-0.1,0.9-0.3,1.3
				c-0.2,0.4-0.4,0.7-0.7,1c-0.3,0.3-0.6,0.5-1,0.7c-0.4,0.2-0.8,0.2-1.2,0.2c-0.4,0-0.9-0.1-1.2-0.2c-0.4-0.2-0.7-0.4-1-0.7
				c-0.3-0.3-0.5-0.6-0.7-1C121.9,54.2,121.8,53.7,121.8,53.3z M122.4,53.3c0,0.4,0.1,0.7,0.2,1.1c0.1,0.3,0.3,0.6,0.6,0.9
				c0.2,0.2,0.5,0.4,0.9,0.6c0.3,0.1,0.7,0.2,1.1,0.2s0.7-0.1,1.1-0.2c0.3-0.1,0.6-0.3,0.9-0.6c0.2-0.2,0.4-0.5,0.6-0.9
				c0.1-0.3,0.2-0.7,0.2-1.1c0-0.4-0.1-0.7-0.2-1.1c-0.1-0.3-0.3-0.6-0.6-0.9c-0.2-0.2-0.5-0.4-0.9-0.6c-0.3-0.1-0.7-0.2-1.1-0.2
				s-0.7,0.1-1.1,0.2c-0.3,0.1-0.6,0.3-0.9,0.6c-0.2,0.2-0.4,0.5-0.6,0.9S122.4,52.9,122.4,53.3z M123.9,51.5h1.4
				c0.4,0,0.8,0.1,1,0.3c0.2,0.2,0.3,0.4,0.3,0.8c0,0.3-0.1,0.6-0.3,0.7c-0.2,0.2-0.4,0.2-0.7,0.3l1.1,1.6H126l-1-1.6h-0.7v1.6h-0.5
				V51.5z M124.4,53.1h0.6c0.1,0,0.2,0,0.4,0c0.1,0,0.2,0,0.3-0.1c0.1,0,0.2-0.1,0.2-0.2c0.1-0.1,0.1-0.2,0.1-0.3
				c0-0.1,0-0.2-0.1-0.3c0-0.1-0.1-0.1-0.2-0.2c-0.1,0-0.2-0.1-0.3-0.1c-0.1,0-0.2,0-0.3,0h-0.8V53.1z"/>
		</g>
	</g>
</g>
</svg>
