<?xml version="1.0" encoding="UTF-8"?>
<!DOCTYPE svg PUBLIC "-//W3C//DTD SVG 1.1//EN" "http://www.w3.org/Graphics/SVG/1.1/DTD/svg11.dtd">
<svg xmlns="http://www.w3.org/2000/svg" version="1.1" width="3840px" height="2160px" style="shape-rendering:geometricPrecision; text-rendering:geometricPrecision; image-rendering:optimizeQuality; fill-rule:evenodd; clip-rule:evenodd" xmlns:xlink="http://www.w3.org/1999/xlink">
<g><path style="opacity:0.986" fill="#221f1f" d="M 544.5,747.5 C 585.68,787.195 625.513,828.195 664,870.5C 664.832,881.515 664.666,892.515 663.5,903.5C 642.633,883.228 618.633,867.728 591.5,857C 524.704,829.139 457.038,828.473 388.5,855C 328.732,881.434 286.566,924.934 262,985.5C 234.904,1060.67 236.237,1135.34 266,1209.5C 305.232,1291.07 370.066,1336.57 460.5,1346C 531.818,1352.99 595.151,1333.32 650.5,1287C 655.333,1282.17 660.167,1277.33 665,1272.5C 665.5,1273 666,1273.5 666.5,1274C 665.679,1284.09 665.179,1294.26 665,1304.5C 636.474,1341.62 601.14,1368.62 559,1385.5C 544.612,1391.85 529.779,1397.02 514.5,1401C 468.848,1412.04 422.182,1414.54 374.5,1408.5C 274.755,1396.19 197.255,1347.86 142,1263.5C 95.6705,1183.18 83.6705,1098.18 106,1008.5C 137.036,906.63 201.869,835.463 300.5,795C 365.663,770.683 432.33,765.683 500.5,780C 515.321,783.162 529.821,787.329 544,792.5C 544.5,777.504 544.667,762.504 544.5,747.5 Z"/></g>
<g><path style="opacity:0.979" fill="#221f1f" d="M 3469.5,747.5 C 3474.05,746.884 3478.05,748.051 3481.5,751C 3498.31,765.804 3512.14,782.971 3523,802.5C 3526.57,836.762 3522.07,869.929 3509.5,902C 3525.85,927.983 3544.85,951.983 3566.5,974C 3577.17,980 3587.83,986 3598.5,992C 3626.45,1010.19 3634.62,1035.02 3623,1066.5C 3618.25,1076.33 3612.75,1085.67 3606.5,1094.5C 3611.66,1111.45 3616.66,1128.45 3621.5,1145.5C 3621.28,1146.94 3620.78,1148.27 3620,1149.5C 3603.7,1168.13 3587.04,1186.47 3570,1204.5C 3568.29,1212.73 3566.45,1220.9 3564.5,1229C 3550.5,1229.5 3536.5,1229.67 3522.5,1229.5C 3522.15,1222.24 3523.98,1215.57 3528,1209.5C 3535.03,1201.14 3542.69,1193.47 3551,1186.5C 3561.17,1173.5 3571.33,1160.5 3581.5,1147.5C 3562.1,1126.65 3542.27,1106.32 3522,1086.5C 3517.55,1073.36 3513.71,1060.02 3510.5,1046.5C 3487.63,1032.57 3465.63,1017.4 3444.5,1001C 3431.53,986.724 3420.53,971.058 3411.5,954C 3395.33,943.08 3379.33,931.913 3363.5,920.5C 3357.53,924.641 3351.69,928.974 3346,933.5C 3345.77,943.023 3345.27,952.523 3344.5,962C 3346.38,969.626 3349.04,976.959 3352.5,984C 3352.14,985.225 3351.64,986.391 3351,987.5C 3345.31,996.228 3339.14,1004.56 3332.5,1012.5C 3323.88,1000.51 3319.88,987.343 3320.5,973C 3321.14,959.172 3321.64,945.339 3322,931.5C 3322.16,927.713 3322.83,924.046 3324,920.5C 3334.83,909 3345.67,897.5 3356.5,886C 3358.83,885.333 3361.17,885.333 3363.5,886C 3374.9,889.465 3386.23,893.132 3397.5,897C 3399.97,897.706 3402.3,897.373 3404.5,896C 3414,889.167 3423.5,882.333 3433,875.5C 3441.71,861.915 3450.54,848.415 3459.5,835C 3458.83,834.833 3458.17,834.667 3457.5,834.5C 3443.17,837.334 3428.83,839.834 3414.5,842C 3409.61,840.484 3405.78,837.65 3403,833.5C 3402.33,826.833 3402.33,820.167 3403,813.5C 3424.73,797.716 3446.9,782.549 3469.5,768C 3469.61,761.15 3469.61,754.317 3469.5,747.5 Z"/></g>
<g><path style="opacity:0.978" fill="#221f1f" d="M 1347.5,783.5 C 1367.57,781.784 1386.23,785.951 1403.5,796C 1419.71,808.282 1425.87,824.449 1422,844.5C 1416.1,862.736 1403.93,874.57 1385.5,880C 1369.32,883.828 1352.98,884.495 1336.5,882C 1311.2,877.034 1295.87,862.034 1290.5,837C 1291.66,813.836 1302.99,797.836 1324.5,789C 1332.13,786.445 1339.8,784.612 1347.5,783.5 Z"/></g>
<g><path style="opacity:0.983" fill="#221f1f" d="M 3026.5,797.5 C 3074.74,797.169 3122.91,797.503 3171,798.5C 3171.5,941.5 3171.67,1084.5 3171.5,1227.5C 3184.84,1227.33 3198.17,1227.5 3211.5,1228C 3212.49,1239.09 3212.82,1250.25 3212.5,1261.5C 3162.83,1261.5 3113.17,1261.5 3063.5,1261.5C 3063.5,1117.5 3063.5,973.5 3063.5,829.5C 3051.17,829.5 3038.83,829.5 3026.5,829.5C 3026.44,818.624 3026.44,807.957 3026.5,797.5 Z"/></g>
<g><path style="opacity:0.986" fill="#221f1f" d="M 1179.5,831.5 C 1186.5,831.5 1193.5,831.5 1200.5,831.5C 1200.5,861.833 1200.5,892.167 1200.5,922.5C 1214.17,922.333 1227.84,922.5 1241.5,923C 1242.49,933.418 1242.82,943.918 1242.5,954.5C 1228.5,954.5 1214.5,954.5 1200.5,954.5C 1200.33,1039.17 1200.5,1123.83 1201,1208.5C 1203.62,1219.44 1210.62,1224.77 1222,1224.5C 1228.33,1223.86 1234.5,1222.53 1240.5,1220.5C 1241.09,1220.71 1241.59,1221.04 1242,1221.5C 1242.67,1231.83 1242.67,1242.17 1242,1252.5C 1233.02,1257.38 1223.69,1260.38 1214,1261.5C 1185.54,1269.17 1157.38,1267.34 1129.5,1256C 1107.3,1243.42 1095.13,1224.25 1093,1198.5C 1092.5,1117.17 1092.33,1035.83 1092.5,954.5C 1080.5,954.5 1068.5,954.5 1056.5,954.5C 1056.33,946.493 1056.5,938.493 1057,930.5C 1098.36,898.08 1139.19,865.08 1179.5,831.5 Z"/></g>
<g><path style="opacity:0.986" fill="#221f1f" d="M 2629.5,831.5 C 2637.01,831.038 2644.34,831.538 2651.5,833C 2650.5,862.76 2650.17,892.593 2650.5,922.5C 2667.83,922.5 2685.17,922.5 2702.5,922.5C 2702.5,933.167 2702.5,943.833 2702.5,954.5C 2685.17,954.5 2667.83,954.5 2650.5,954.5C 2650.33,1038.17 2650.5,1121.83 2651,1205.5C 2652.24,1218.07 2659.24,1224.41 2672,1224.5C 2678.99,1223.86 2685.82,1222.52 2692.5,1220.5C 2692.82,1231.41 2692.49,1242.25 2691.5,1253C 2685.72,1255.89 2679.72,1258.22 2673.5,1260C 2658.09,1263.19 2642.59,1265.36 2627,1266.5C 2610.79,1265.72 2594.96,1262.22 2579.5,1256C 2557.41,1243.36 2545.24,1224.19 2543,1198.5C 2542.5,1117.17 2542.33,1035.83 2542.5,954.5C 2530.5,954.5 2518.5,954.5 2506.5,954.5C 2506.33,946.493 2506.5,938.493 2507,930.5C 2548.6,898.394 2589.43,865.394 2629.5,831.5 Z"/></g>
<g><path style="opacity:0.928" fill="#221f1f" d="M 3341.5,881.5 C 3342.97,882.072 3344.31,882.905 3345.5,884C 3336.17,893.333 3326.83,902.667 3317.5,912C 3308.67,916.823 3301,923.157 3294.5,931C 3290.49,931.185 3286.33,930.352 3282,928.5C 3281.23,928.645 3280.56,928.978 3280,929.5C 3279.48,928.484 3278.65,927.818 3277.5,927.5C 3273.25,926.685 3269.09,925.685 3265,924.5C 3263.66,925.214 3262.32,924.88 3261,923.5C 3261.13,920.902 3262.13,918.569 3264,916.5C 3274.29,905.264 3286.79,897.431 3301.5,893C 3315.04,889.452 3328.37,885.619 3341.5,881.5 Z"/></g>
<g><path style="opacity:0.986" fill="#221f1f" d="M 483.5,906.5 C 579.698,902.653 640.531,946.987 666,1039.5C 678.762,1096.5 671.095,1150.5 643,1201.5C 611.254,1249.82 566.254,1275.48 508,1278.5C 410.954,1275.48 352.954,1226.14 334,1130.5C 325.419,1078.55 333.752,1029.55 359,983.5C 388.323,938.091 429.823,912.424 483.5,906.5 Z M 500.5,942.5 C 516.891,944.124 527.724,952.79 533,968.5C 538.92,986.688 542.254,1005.35 543,1024.5C 546.934,1078.26 545.934,1131.93 540,1185.5C 537.914,1200.09 533.247,1213.76 526,1226.5C 516.501,1237.66 504.668,1241.16 490.5,1237C 486.835,1235.5 483.502,1233.5 480.5,1231C 470.768,1217.82 464.935,1202.99 463,1186.5C 456.941,1131.6 455.941,1076.6 460,1021.5C 460.872,1002.27 464.538,983.6 471,965.5C 476.117,951.526 485.95,943.86 500.5,942.5 Z"/></g>
<g><path style="opacity:0.979" fill="#221f1f" d="M 916.5,915.5 C 972.83,915.999 1005.66,943.999 1015,999.5C 1015.96,1007.81 1016.62,1016.14 1017,1024.5C 1017.5,1092.17 1017.67,1159.83 1017.5,1227.5C 1030.5,1227.33 1043.5,1227.5 1056.5,1228C 1057.49,1239.09 1057.82,1250.25 1057.5,1261.5C 1008.17,1261.5 958.833,1261.5 909.5,1261.5C 909.667,1181.17 909.5,1100.83 909,1020.5C 908.935,1004.95 903.435,991.783 892.5,981C 875.971,972.171 861.137,974.671 848,988.5C 842.859,996.386 839.859,1005.05 839,1014.5C 838.5,1085.5 838.333,1156.5 838.5,1227.5C 848.416,1227.18 858.25,1227.51 868,1228.5C 868.5,1239.49 868.667,1250.49 868.5,1261.5C 812.166,1261.67 755.832,1261.5 699.5,1261C 698.347,1250.24 698.18,1239.41 699,1228.5C 709.084,1227.51 719.251,1227.18 729.5,1227.5C 729.168,1136.6 729.501,1045.76 730.5,955C 719.839,954.5 709.172,954.333 698.5,954.5C 698.5,943.833 698.5,933.167 698.5,922.5C 743.168,922.333 787.835,922.5 832.5,923C 833.326,939.426 833.826,955.926 834,972.5C 850.979,938.261 878.479,919.261 916.5,915.5 Z"/></g>
<g><path style="opacity:0.981" fill="#221f1f" d="M 1685.5,915.5 C 1743.18,916.341 1776.01,945.341 1784,1002.5C 1784.98,1013.15 1785.65,1023.81 1786,1034.5C 1786.5,1098.83 1786.67,1163.17 1786.5,1227.5C 1799.5,1227.33 1812.5,1227.5 1825.5,1228C 1826.49,1239.09 1826.82,1250.25 1826.5,1261.5C 1777.16,1261.83 1727.83,1261.5 1678.5,1260.5C 1678.29,1259.91 1677.96,1259.41 1677.5,1259C 1677.45,1180.47 1677.78,1101.81 1678.5,1023C 1678.03,1010.27 1674.53,998.436 1668,987.5C 1653.19,973.053 1637.36,971.887 1620.5,984C 1613.49,992.197 1609.32,1001.7 1608,1012.5C 1606.53,1084.14 1606.03,1155.81 1606.5,1227.5C 1616.75,1227.18 1626.92,1227.51 1637,1228.5C 1637.5,1239.49 1637.67,1250.49 1637.5,1261.5C 1580.83,1261.5 1524.17,1261.5 1467.5,1261.5C 1467.33,1250.49 1467.5,1239.49 1468,1228.5C 1478,1227.17 1488,1227.17 1498,1228.5C 1498.5,1137.17 1498.67,1045.83 1498.5,954.5C 1488.17,954.5 1477.83,954.5 1467.5,954.5C 1467.5,943.833 1467.5,933.167 1467.5,922.5C 1512.17,922.5 1556.83,922.5 1601.5,922.5C 1601.33,939.837 1601.5,957.17 1602,974.5C 1618.66,939.008 1646.49,919.342 1685.5,915.5 Z"/></g>
<g><path style="opacity:0.981" fill="#221f1f" d="M 1979.5,915.5 C 2055.92,913.086 2103.42,948.753 2122,1022.5C 2127.47,1049.95 2129.13,1077.62 2127,1105.5C 2067.05,1107.49 2006.88,1108.16 1946.5,1107.5C 1946.58,1132.53 1953.75,1155.2 1968,1175.5C 1983.74,1192.87 2003.41,1201.53 2027,1201.5C 2056.03,1201.56 2080.53,1191.22 2100.5,1170.5C 2107.33,1175.49 2113.33,1181.33 2118.5,1188C 2091.12,1241.13 2047.29,1267.63 1987,1267.5C 1912.03,1265.44 1863.36,1229.1 1841,1158.5C 1827.12,1108 1829.12,1058 1847,1008.5C 1872.04,950.298 1916.21,919.298 1979.5,915.5 Z M 1975.5,952.5 C 1980.49,953.649 1985.49,953.816 1990.5,953C 2000.13,955.296 2006.63,961.129 2010,970.5C 2014.28,983.159 2016.94,996.159 2018,1009.5C 2019.75,1030.74 2020.58,1051.74 2020.5,1072.5C 1995.83,1072.5 1971.17,1072.5 1946.5,1072.5C 1946.24,1044.02 1948.07,1015.69 1952,987.5C 1953.62,976.267 1958.12,966.434 1965.5,958C 1968.77,955.87 1972.1,954.037 1975.5,952.5 Z"/></g>
<g><path style="opacity:0.982" fill="#221f1f" d="M 2367.5,915.5 C 2415.51,914.895 2447.01,937.228 2462,982.5C 2464.76,995.691 2466.43,1009.02 2467,1022.5C 2467.5,1090.83 2467.67,1159.17 2467.5,1227.5C 2480.5,1227.33 2493.5,1227.5 2506.5,1228C 2507.49,1239.09 2507.82,1250.25 2507.5,1261.5C 2458.26,1261.83 2409.09,1261.5 2360,1260.5C 2359.83,1180.6 2359.33,1100.76 2358.5,1021C 2359.09,1007.54 2355.25,995.376 2347,984.5C 2335.33,975.301 2322.83,973.467 2309.5,979C 2301.49,983.346 2295.99,989.846 2293,998.5C 2291.03,1004.01 2289.7,1009.68 2289,1015.5C 2288.5,1086.17 2288.33,1156.83 2288.5,1227.5C 2298.55,1227.19 2308.55,1227.52 2318.5,1228.5C 2319.82,1239.39 2319.82,1250.23 2318.5,1261C 2262.17,1261.67 2205.83,1261.67 2149.5,1261C 2148.35,1250.24 2148.18,1239.41 2149,1228.5C 2159.42,1227.51 2169.92,1227.18 2180.5,1227.5C 2180.5,1136.5 2180.5,1045.5 2180.5,954.5C 2169.83,954.5 2159.17,954.5 2148.5,954.5C 2148.5,943.833 2148.5,933.167 2148.5,922.5C 2193.17,922.333 2237.83,922.5 2282.5,923C 2283.33,939.426 2283.83,955.926 2284,972.5C 2301.45,938.201 2329.29,919.201 2367.5,915.5 Z"/></g>
<g><path style="opacity:0.983" fill="#221f1f" d="M 2855.5,915.5 C 2885.33,914.297 2913.33,920.797 2939.5,935C 2970.65,955.769 2988.15,984.935 2992,1022.5C 2992.5,1090.83 2992.67,1159.17 2992.5,1227.5C 3003.88,1227.19 3015.22,1227.52 3026.5,1228.5C 3027.82,1239.39 3027.82,1250.23 3026.5,1261C 2980.83,1261.5 2935.17,1261.67 2889.5,1261.5C 2889.67,1247.83 2889.5,1234.16 2889,1220.5C 2861.96,1258.61 2825.62,1273.61 2780,1265.5C 2747.78,1254.28 2726.78,1232.28 2717,1199.5C 2708.13,1168.31 2711.13,1137.31 2726,1106.5C 2740.74,1082.78 2761.57,1066.94 2788.5,1059C 2820.48,1050.55 2852.48,1050.39 2884.5,1058.5C 2884.67,1047.83 2884.5,1037.16 2884,1026.5C 2881.56,1005.42 2870.73,990.588 2851.5,982C 2809.27,970.074 2774.1,981.574 2746,1016.5C 2739.31,1008.64 2732.81,1000.64 2726.5,992.5C 2757.05,946.054 2800.05,920.388 2855.5,915.5 Z M 2860.5,1086.5 C 2865.88,1087.01 2871.21,1087.84 2876.5,1089C 2879.24,1090.07 2881.74,1091.57 2884,1093.5C 2884.83,1128.5 2884.67,1163.5 2883.5,1198.5C 2873.04,1206.48 2861.37,1208.65 2848.5,1205C 2836.47,1199.29 2829.3,1189.79 2827,1176.5C 2823.19,1155.02 2823.85,1133.69 2829,1112.5C 2833.71,1096.6 2844.21,1087.94 2860.5,1086.5 Z"/></g>
<g><path style="opacity:0.982" fill="#221f1f" d="M 1271.5,922.5 C 1317.83,922.5 1364.17,922.5 1410.5,922.5C 1410.5,1024.17 1410.5,1125.83 1410.5,1227.5C 1420.75,1227.18 1430.92,1227.51 1441,1228.5C 1441.5,1239.49 1441.67,1250.49 1441.5,1261.5C 1385.17,1261.67 1328.83,1261.5 1272.5,1261C 1271.35,1250.24 1271.18,1239.41 1272,1228.5C 1282.08,1227.51 1292.25,1227.18 1302.5,1227.5C 1302.5,1136.5 1302.5,1045.5 1302.5,954.5C 1292.17,954.5 1281.83,954.5 1271.5,954.5C 1271.5,943.833 1271.5,933.167 1271.5,922.5 Z"/></g>
<g><path style="opacity:0.952" fill="#221f1f" d="M 3631.5,1013.5 C 3633.65,1013.37 3635.65,1013.87 3637.5,1015C 3648.28,1022.11 3658.78,1029.61 3669,1037.5C 3675.36,1053.27 3679.69,1069.61 3682,1086.5C 3685.75,1111.71 3688.25,1137.05 3689.5,1162.5C 3674.03,1156.51 3660.2,1147.85 3648,1136.5C 3645.45,1105.85 3643.11,1075.18 3641,1044.5C 3638.39,1034.5 3634.89,1024.83 3630.5,1015.5C 3630.86,1014.82 3631.2,1014.15 3631.5,1013.5 Z"/></g>
<g><path style="opacity:0.948" fill="#221f1f" d="M 3541.5,1121.5 C 3549.09,1127.42 3556.09,1134.09 3562.5,1141.5C 3545.81,1156.02 3528.98,1170.35 3512,1184.5C 3508.71,1190.25 3505.54,1196.09 3502.5,1202C 3489.82,1202.83 3477.15,1202.67 3464.5,1201.5C 3467.22,1193.06 3471.72,1185.73 3478,1179.5C 3500.56,1161.78 3521.73,1142.44 3541.5,1121.5 Z"/></g>
<g><path style="opacity:0.91" fill="#221f1f" d="M 3249.5,1243.5 C 3414.17,1243.5 3578.83,1243.5 3743.5,1243.5C 3743.5,1249.5 3743.5,1255.5 3743.5,1261.5C 3578.83,1261.5 3414.17,1261.5 3249.5,1261.5C 3249.5,1255.5 3249.5,1249.5 3249.5,1243.5 Z"/></g>
</svg>
