<?xml version="1.0" encoding="utf-8"?>
<!-- Generator: Adobe Illustrator 26.3.1, SVG Export Plug-In . SVG Version: 6.00 Build 0)  -->
<svg version="1.1" id="Ebene_1" xmlns="http://www.w3.org/2000/svg" xmlns:xlink="http://www.w3.org/1999/xlink" x="0px" y="0px"
	 viewBox="0 0 500 53.1" style="enable-background:new 0 0 500 53.1;" xml:space="preserve">
<style type="text/css">
	.st0{fill:#00467F;}
	.st1{fill:#FFFFFF;}
	.st2{fill:#0061AF;}
	.st3{fill:none;stroke:#999999;stroke-miterlimit:10;}
</style>
<g id="Hamilton_Services_Logo_RGB_oT_positiv" transform="translate(-28.324 -13.888)">
	<g id="Gruppe_48" transform="translate(104.492 22.196)">
		<circle id="Ellipse_10" class="st0" cx="74.7" cy="18.3" r="11.4"/>
		<path id="Pfad_78" class="st1" d="M79.2,23.8l1.9-3l-0.6-0.4l-1.9,2.9c-0.4-1.1-0.5-2.2-0.3-3.4c3.3-1.1,4.2-7.6,2.3-8.8l-1.4,0.5
			c-0.9,2.8-1.5,5-1.9,6.9l-0.1,0c-0.7,0.1-1.5,0.2-2.6,0.4c0.2-2.6,0.7-5.2,1.7-7.7c-2.1,0.1-4.6,0.2-5.7,0.2
			c-1.3-0.1-2.6,0.5-3.3,1.7c-1.2,1.8,1.5,2.4,3.4,2.9l1.8-0.7c-1.8-0.7-4.9-1.2-4.1-2c0.6-0.6,2.9-0.2,4-0.3
			c0.8-0.1,1.6-0.3,2.3-0.7c-0.8,2.2-1.3,4.5-1.5,6.8c-0.4,0-0.8,0.1-1.2,0.1c-3.1,0.3-5.6,0.9-5.6,3.2c0,2.4,6.9,3.3,8.1-1.9
			c0.7-0.1,1.4-0.2,2.6-0.3c-0.4,2.8-0.2,4.3,0.3,5l-1.4,2.2l0.6,0.4l1.4-2.1c1.2,0.4,3.2-1.1,3.9-1.9l0.4-1.1
			C80.8,23.7,79.8,24,79.2,23.8L79.2,23.8z M67.4,22.4c0-1.8,2.4-1.5,5.6-1.8C72,24.1,67.4,23.9,67.4,22.4L67.4,22.4z M79.9,12.6
			c1.1,0.1,1,4.1-1.3,5.5C79,16.2,79.5,14.1,79.9,12.6L79.9,12.6z"/>
	</g>
	<path id="Pfad_79" class="st0" d="M120.6,51.3l-7.4,0V35.7c-2.1,5.2-4.4,10.3-6.4,15.6h-7.6c-2.1-5.2-3.9-10.5-5.8-15.7v15.7h-6.9
		V29.7h11.8c1.8,4.5,3.4,9,5.2,13.3c1.9-4.2,3.6-9,5.3-13.3h11.9L120.6,51.3L120.6,51.3z"/>
	<path id="Pfad_80" class="st0" d="M35.6,29.7v7.6H47v-7.6h7.4v21.6H47v-8.7H35.6v8.7h-7.3V29.7L35.6,29.7z"/>
	<path id="Pfad_81" class="st0" d="M198.9,51.3h-7.1V29.7h9.6c3.8,4.4,7.5,9.1,11.2,13.5V29.7h7v21.6h-10c-3.6-4.4-7-9.1-10.7-13.5
		L198.9,51.3z"/>
	<rect id="Rechteck_8" x="122.3" y="29.7" class="st0" width="7.5" height="21.6"/>
	<path id="Pfad_82" class="st0" d="M151.1,51.3h-19.7V29.7h7.4v15.4h12.3L151.1,51.3z"/>
	<path id="Pfad_83" class="st0" d="M168.7,29.7h-24.7v4.8h8.8v16.8h7.4l0-16.8h8.6L168.7,29.7z"/>
	<path id="Pfad_84" class="st0" d="M77.6,51.3l-1.9-3.8H64.7l-1.8,3.8h-7.5c3.8-7.2,7.8-14.4,11.7-21.6h7.4
		c3.8,7.2,7.5,14.7,11.2,21.6L77.6,51.3L77.6,51.3z M70.4,35.8l-3.3,6.8h6.3C72.4,40.4,71.4,38.1,70.4,35.8"/>
	<g id="Gruppe_50" transform="translate(184.799 18.364)">
		<g id="Gruppe_49" transform="translate(92.292)">
			<circle id="Ellipse_11" class="st2" cx="216.7" cy="13.4" r="9.7"/>
			<path id="Pfad_85" class="st1" d="M220.5,18.1l1.6-2.6l-0.5-0.3l-1.6,2.5c-0.4-0.9-0.5-1.9-0.2-2.9c2.9-0.9,3.6-6.5,2-7.5
				l-1.2,0.5c-0.8,2.4-1.3,4.3-1.6,5.9h0c-0.6,0.1-1.3,0.2-2.3,0.3c0.2-2.2,0.6-4.5,1.4-6.6c-1.8,0.1-3.9,0.1-4.8,0.1
				c-1.1-0.1-2.3,0.4-2.8,1.4c-1,1.5,1.2,2.1,2.9,2.5l1.6-0.6c-1.5-0.6-4.2-1.1-3.5-1.7c0.5-0.5,2.4-0.2,3.4-0.3
				c0.7-0.1,1.3-0.3,2-0.6c-0.7,1.9-1.1,3.9-1.3,5.9c-0.3,0-0.7,0.1-1,0.1c-2.6,0.2-4.8,0.7-4.8,2.7c0,2.1,5.9,2.9,6.9-1.6
				c0.6-0.1,1.2-0.1,2.2-0.3c-0.4,2.4-0.2,3.7,0.3,4.3l-1.2,1.9l0.5,0.3l1.2-1.8c1.1,0.4,2.7-1,3.3-1.6l0.3-0.9
				C221.9,18.1,221,18.3,220.5,18.1L220.5,18.1z M210.5,17c0-1.5,2-1.3,4.8-1.5C214.4,18.4,210.5,18.3,210.5,17L210.5,17z
				 M221.2,8.6c1,0.1,0.8,3.5-1.1,4.7C220.4,11.6,220.8,9.9,221.2,8.6L221.2,8.6z"/>
		</g>
		<path id="Pfad_86" class="st2" d="M258.9,22.7l-6.3,0V9.4c-1.8,4.5-3.7,8.9-5.5,13.3h-6.5c-1.8-4.5-3.3-9-5-13.4v13.4h-5.9V4.2
			h10.1c1.6,3.8,2.9,7.7,4.5,11.4c1.7-3.6,3.1-7.7,4.6-11.4h10.2L258.9,22.7L258.9,22.7z"/>
		<path id="Pfad_87" class="st2" d="M186.2,4.2v6.5h9.8V4.2h6.3v18.5h-6.4v-7.4h-9.7v7.4h-6.3V4.2L186.2,4.2z"/>
		<path id="Pfad_88" class="st2" d="M325.9,22.7h-6.1V4.2h8.2c3.2,3.7,6.4,7.8,9.6,11.5V4.2h6v18.5H335c-3.1-3.7-6-7.8-9.1-11.6
			L325.9,22.7L325.9,22.7z"/>
		<rect id="Rechteck_9" x="260.3" y="4.2" class="st2" width="6.4" height="18.5"/>
		<path id="Pfad_89" class="st2" d="M285,22.7h-16.8V4.2h6.4v13.2H285L285,22.7z"/>
		<path id="Pfad_90" class="st2" d="M300,4.2h-21.2v4.1h7.5v14.4h6.3V8.3h7.3V4.2z"/>
		<path id="Pfad_91" class="st2" d="M222.1,22.7l-1.7-3.2h-9.3l-1.6,3.2H203c3.2-6.1,6.7-12.4,10-18.5h6.3
			c3.2,6.1,6.5,12.6,9.6,18.5L222.1,22.7L222.1,22.7z M215.9,9.5l-2.9,5.8h5.4C217.7,13.4,216.8,11.4,215.9,9.5"/>
		<path id="Pfad_92" class="st2" d="M228.1,33.3h-6c-0.3-1.9-2-3.3-3.9-3.3c-2.4,0.1-4.3,2-4.2,4.4c0,0.1,0,0.2,0,0.3
			c-0.3,2.2,1.3,4.3,3.5,4.6c0.2,0,0.5,0,0.7,0c2,0,3.7-1.5,3.9-3.5h6.1c-0.6,5-5,8.8-10.1,8.6c-5.4-0.2-9.5-4.7-9.3-10.1
			c0.2-5.4,4.7-9.5,10.1-9.3C223.5,25.3,227.4,28.7,228.1,33.3L228.1,33.3z"/>
		<path id="Pfad_93" class="st2" d="M167.2,38.7h11.3v5.4h-17.6V25.6h17.6v5.1h-11.3v1.9h10.2v4.3h-10.2L167.2,38.7z"/>
		<path id="Pfad_94" class="st2" d="M269.3,44.1h-16.8V25.6h6.3l0,13.1h10.4L269.3,44.1z"/>
		<rect id="Rechteck_10" x="200.6" y="25.5" class="st2" width="6.3" height="18.5"/>
		<path id="Pfad_95" class="st2" d="M130.2,25.6v18.5h5.9V30.8c1.8,4.4,3.2,8.8,4.9,13.2h6.8l5.5-13.2v13.2h6.1V25.6h-9.9
			c-1.6,3.7-3,7.7-4.7,11.3c-1.6-3.7-2.9-7.6-4.5-11.3L130.2,25.6L130.2,25.6z"/>
		<path id="Pfad_96" class="st2" d="M242.4,25.6l9.3,18.5h-7.1c-0.5-1.1-0.9-1.9-1.6-3.2h-9.3c-0.5,1-1.1,2.1-1.6,3.2h-6.5L236,25.6
			L242.4,25.6L242.4,25.6z M238.8,30.7l-2.8,5.9h5.4C240.6,34.6,239.7,32.7,238.8,30.7"/>
		<path id="Pfad_97" class="st2" d="M179.9,25.6h11c4.9,0.2,8.8,4.2,8.9,9.1c0,5.9-5.3,9.3-10,9.3h-9.8L179.9,25.6L179.9,25.6z
			 M186.2,38.7h2.4c1.6,0,4.9-0.6,4.9-4c0-2.8-2.5-4-4.9-4h-2.4L186.2,38.7L186.2,38.7z"/>
	</g>
	<line id="Linie_15" class="st3" x1="272.7" y1="13.9" x2="272.7" y2="67"/>
</g>
</svg>
